<?xml version="1.0" standalone="no"?><!-- Generator: Gravit.io --><svg xmlns="http://www.w3.org/2000/svg" xmlns:xlink="http://www.w3.org/1999/xlink" style="isolation:isolate" viewBox="204 360.75 30 30" width="30" height="30"><defs><clipPath id="_clipPath_fB4MiGXZmpVOrADJeK5j7oiMFhW4hVzg"><rect width="375" height="667"/></clipPath></defs><g clip-path="url(#_clipPath_fB4MiGXZmpVOrADJeK5j7oiMFhW4hVzg)"><g style="isolation:isolate" id="Vocab Trainer"><mask id="_mask_L2dBTB6rYhPRhO8KwFcLsnJVc34oRPSH" x="-200%" y="-200%" width="400%" height="400%"><rect x="0" y="0" width="100%" height="100%" style="fill:white;"/><rect x="12.757" y="156" width="352" height="249" transform="matrix(1,0,0,1,0,0)" fill="black" stroke="none"/></mask><rect x="12.757" y="156" width="352" height="249" transform="matrix(1,0,0,1,0,0)" fill="rgb(253,255,252)" mask="url(#_mask_L2dBTB6rYhPRhO8KwFcLsnJVc34oRPSH)" vector-effect="non-scaling-stroke" stroke-width="4" stroke="rgb(2,43,58)" stroke-opacity="0.44" stroke-linejoin="round" stroke-linecap="round" stroke-miterlimit="3"/><mask id="_mask_v2SahUPjRoAorBDK965vIhS9c0YNug0w" x="-200%" y="-200%" width="400%" height="400%"><rect x="0" y="0" width="100%" height="100%" style="fill:white;"/><rect x="29.257" y="260.5" width="319" height="61" transform="matrix(1,0,0,1,0,0)" fill="black" stroke="none"/></mask><rect x="29.257" y="260.5" width="319" height="61" transform="matrix(1,0,0,1,0,0)" fill="rgb(255,255,255)" mask="url(#_mask_v2SahUPjRoAorBDK965vIhS9c0YNug0w)" vector-effect="non-scaling-stroke" stroke-width="10" stroke="rgb(255,119,35)" stroke-opacity="0.74" stroke-linejoin="round" stroke-linecap="square" stroke-miterlimit="3"/><g transform="matrix(1.354,0,0,1.354,10.514,153.2)"><text transform="matrix(1,0,0,1,54.996,60.656)" style="font-family:&quot;NTR&quot;;font-weight:400;font-size:48px;font-style:normal;fill:#2A2828;stroke:none;">Website</text></g><g style="mix-blend-mode:normal;" opacity="0.49"><g transform="matrix(1,0,0,1,29.257,260.5)"><text transform="matrix(1,0,0,1,49.24,44.072)" style="font-family:&quot;Poiret One&quot;;font-weight:400;font-size:36px;font-style:normal;fill:#2a2828;stroke:none;">...Your answer...</text></g></g><g transform="matrix(1,0,0,1,-0.743,49)"><text transform="matrix(1,0,0,1,35.527,32.922)" style="font-family:&quot;Numans&quot;;font-weight:400;font-size:24px;font-style:normal;fill:#2a2828;stroke:none;">Write the word below in </text><text transform="matrix(1,0,0,1,29.023,61.117)" style="font-family:&quot;Numans&quot;;font-weight:400;font-size:24px;font-style:normal;fill:#ff7723;stroke:none;">German </text><text transform="matrix(1,0,0,1,136.555,61.117)" style="font-family:&quot;Numans&quot;;font-weight:400;font-size:24px;font-style:normal;fill:#2a2828;stroke:none;">with the correct </text><text transform="matrix(1,0,0,1,144.576,89.313)" style="font-family:&quot;Numans&quot;;font-weight:400;font-size:24px;font-style:normal;fill:#2a2828;stroke:none;">Article</text></g><path d=" M 207.144 360.75 L 210.288 363.825 L 215.005 363.825 L 211.86 360.75 L 207.144 360.75 Z  M 219.721 360.75 L 219.721 363.825 L 222.865 363.825 L 222.865 360.75 L 219.721 360.75 Z  M 230.725 360.75 L 227.581 363.825 L 232.297 363.825 L 235.442 360.75 L 230.725 360.75 Z  M 213.432 365.363 C 210.835 365.363 208.716 367.435 208.716 369.975 L 208.716 371.802 L 204 376.125 L 208.716 380.45 L 208.716 382.275 C 208.716 384.815 210.835 386.888 213.432 386.888 L 230.725 386.888 C 233.322 386.888 235.442 384.815 235.442 382.275 L 235.442 369.975 C 235.442 367.435 233.322 365.363 230.725 365.363 L 213.432 365.363 Z  M 213.432 368.438 L 230.725 368.438 C 231.59 368.438 232.297 369.129 232.297 369.975 L 232.297 382.275 C 232.297 383.121 231.59 383.813 230.725 383.813 L 213.432 383.813 C 212.568 383.813 211.86 383.121 211.86 382.275 L 211.86 379.2 L 208.421 376.125 L 211.86 373.05 L 211.86 369.975 C 211.86 369.129 212.568 368.438 213.432 368.438 Z  M 215.005 369.975 L 215.005 373.05 L 229.153 373.05 L 229.153 369.975 L 215.005 369.975 Z  M 215.005 374.588 L 215.005 377.663 L 224.437 377.663 L 224.437 374.588 L 215.005 374.588 Z  M 215.005 379.2 L 215.005 382.275 L 229.153 382.275 L 229.153 379.2 L 215.005 379.2 Z  M 210.288 388.425 L 207.144 391.5 L 211.86 391.5 L 215.005 388.425 L 210.288 388.425 Z  M 219.721 388.425 L 219.721 391.5 L 222.865 391.5 L 222.865 388.425 L 219.721 388.425 Z  M 227.581 388.425 L 230.725 391.5 L 235.442 391.5 L 232.297 388.425 L 227.581 388.425 Z " fill="rgb(2,43,58)"/><path d=" M 321.972 376.125 C 321.972 369.661 327.376 364.375 333.986 364.375 C 340.596 364.375 346 369.661 346 376.125 C 346 382.589 340.596 387.875 333.986 387.875 C 327.376 387.875 321.972 382.589 321.972 376.125 Z  M 335.187 381.61 C 338.093 379.652 340.794 376.714 340.892 376.515 C 340.892 376.42 340.994 376.321 340.994 376.125 C 340.994 375.929 340.892 375.831 340.794 375.635 C 340.694 375.536 337.991 372.502 335.089 370.544 C 334.885 370.35 334.588 370.35 334.287 370.544 C 334.185 370.74 333.986 370.935 333.986 371.229 L 333.986 373.777 C 333.986 373.777 327.877 374.067 327.58 374.267 C 327.177 374.556 326.977 375.44 326.977 376.125 C 326.977 376.81 327.278 377.594 327.58 377.888 C 327.877 378.083 333.986 378.473 333.986 378.473 L 333.986 381.021 C 333.986 381.315 334.088 381.51 334.384 381.61 C 334.588 381.805 334.885 381.805 335.186 381.61 L 335.187 381.61 Z " fill="rgb(4,114,77)"/><path d=" M 51.54 376.375 C 51.54 369.773 46.02 364.375 39.27 364.375 C 32.519 364.375 27 369.773 27 376.375 C 27 382.977 32.519 388.375 39.27 388.375 C 46.02 388.375 51.54 382.977 51.54 376.375 Z  M 38.043 381.977 C 35.076 379.977 32.317 376.977 32.217 376.773 C 32.217 376.676 32.112 376.575 32.112 376.375 C 32.112 376.175 32.217 376.075 32.317 375.875 C 32.419 375.773 35.18 372.675 38.143 370.675 C 38.352 370.477 38.654 370.477 38.962 370.675 C 39.066 370.875 39.27 371.075 39.27 371.375 L 39.27 373.977 C 39.27 373.977 45.509 374.273 45.812 374.477 C 46.224 374.773 46.427 375.675 46.427 376.375 C 46.427 377.075 46.121 377.875 45.812 378.175 C 45.509 378.375 39.27 378.773 39.27 378.773 L 39.27 381.375 C 39.27 381.675 39.166 381.875 38.863 381.977 C 38.654 382.176 38.352 382.176 38.044 381.977 L 38.043 381.977 Z " fill="rgb(4,114,77)"/><g id="Group"><rect x="-249" y="50" width="125" height="125" transform="matrix(1,0,0,1,0,0)" fill="none"/></g><path d=" M 282.405 471.429 C 281.565 471.429 280.872 470.757 280.83 469.917 L 275.958 469.917 C 275.937 470.757 275.244 471.429 274.383 471.429 C 273.522 471.429 272.809 470.736 272.809 469.854 L 272.809 468.342 C 272.809 467.481 273.501 466.767 274.383 466.767 L 282.405 466.767 C 283.265 466.767 283.979 467.46 283.979 468.342 L 283.979 469.854 C 283.958 470.736 283.265 471.429 282.405 471.429 Z  M 291.056 471.429 C 290.216 471.429 289.523 470.757 289.481 469.917 L 288.914 469.917 C 288.893 470.757 288.2 471.429 287.339 471.429 C 286.478 471.429 285.764 470.736 285.764 469.854 L 285.764 468.342 C 285.764 467.481 286.457 466.767 287.339 466.767 L 291.035 466.767 C 291.896 466.767 292.609 467.46 292.609 468.342 L 292.609 469.854 C 292.63 470.736 291.917 471.429 291.056 471.429 Z  M 298.447 471.429 C 297.607 471.429 296.914 470.757 296.872 469.917 L 296.347 469.917 C 296.326 470.757 295.633 471.429 294.772 471.429 C 293.911 471.429 293.197 470.736 293.197 469.854 L 293.197 468.342 C 293.197 467.481 293.89 466.767 294.772 466.767 L 298.426 466.767 C 299.287 466.767 300.001 467.46 300.001 468.342 L 300.001 469.854 C 300.001 470.736 299.308 471.429 298.447 471.429 Z  M 305.859 471.429 C 305.019 471.429 304.326 470.757 304.284 469.917 L 303.759 469.917 C 303.738 470.757 303.045 471.429 302.184 471.429 C 301.324 471.429 300.61 470.736 300.61 469.854 L 300.61 468.342 C 300.61 467.481 301.303 466.767 302.184 466.767 L 305.838 466.767 C 306.699 466.767 307.413 467.46 307.413 468.342 L 307.413 469.854 C 307.434 470.736 306.72 471.429 305.859 471.429 Z  M 313.292 471.429 C 312.452 471.429 311.759 470.757 311.717 469.917 L 311.193 469.917 C 311.172 470.757 310.479 471.429 309.618 471.429 C 308.757 471.429 308.043 470.736 308.043 469.854 L 308.043 468.342 C 308.043 467.481 308.736 466.767 309.618 466.767 L 313.271 466.767 C 314.132 466.767 314.846 467.46 314.846 468.342 L 314.846 469.854 C 314.846 470.736 314.153 471.429 313.292 471.429 L 313.292 471.429 Z  M 320.705 471.429 C 319.865 471.429 319.172 470.757 319.151 469.917 L 318.626 469.917 C 318.605 470.757 317.912 471.429 317.051 471.429 C 316.19 471.429 315.476 470.736 315.476 469.854 L 315.476 468.342 C 315.476 467.481 316.169 466.767 317.051 466.767 L 320.705 466.767 C 321.565 466.767 322.279 467.46 322.279 468.342 L 322.279 469.854 C 322.279 470.736 321.565 471.429 320.705 471.429 Z  M 328.117 471.429 C 327.277 471.429 326.584 470.757 326.542 469.917 L 326.017 469.917 C 325.996 470.757 325.303 471.429 324.442 471.429 C 323.581 471.429 322.867 470.736 322.867 469.854 L 322.867 468.342 C 322.867 467.481 323.56 466.767 324.442 466.767 L 328.096 466.767 C 328.957 466.767 329.671 467.46 329.671 468.342 L 329.671 469.854 C 329.692 470.736 328.999 471.429 328.117 471.429 Z  M 335.55 471.429 C 334.71 471.429 334.017 470.757 333.975 469.917 L 333.45 469.917 C 333.429 470.757 332.736 471.429 331.875 471.429 C 331.014 471.429 330.301 470.736 330.301 469.854 L 330.301 468.342 C 330.301 467.481 330.993 466.767 331.875 466.767 L 335.529 466.767 C 336.39 466.767 337.104 467.46 337.104 468.342 L 337.104 469.854 C 337.104 470.736 336.411 471.429 335.55 471.429 L 335.55 471.429 Z  M 344.81 471.429 C 343.97 471.429 343.277 470.757 343.235 469.917 L 340.862 469.917 C 340.841 470.757 340.148 471.429 339.288 471.429 C 338.427 471.429 337.713 470.736 337.713 469.854 L 337.713 468.342 C 337.713 467.481 338.406 466.767 339.288 466.767 L 344.789 466.767 C 345.65 466.767 346.364 467.46 346.364 468.342 L 346.364 469.854 C 346.385 470.736 345.671 471.429 344.81 471.429 Z  M 325.576 477.959 C 324.736 477.959 324.043 477.287 324.001 476.447 L 298.615 476.447 C 298.594 477.287 297.901 477.959 297.04 477.959 C 296.179 477.959 295.465 477.266 295.465 476.384 L 295.465 474.873 C 295.465 474.012 296.158 473.298 297.04 473.298 L 325.555 473.298 C 326.416 473.298 327.13 473.991 327.13 474.873 L 327.13 476.384 C 327.151 477.266 326.437 477.959 325.576 477.959 Z  M 292.861 477.959 C 292.022 477.959 291.329 477.287 291.287 476.447 L 290.762 476.447 C 290.741 477.287 290.048 477.959 289.187 477.959 C 288.326 477.959 287.612 477.266 287.612 476.384 L 287.612 474.873 C 287.612 474.012 288.305 473.298 289.187 473.298 L 292.84 473.298 C 293.701 473.298 294.415 473.991 294.415 474.873 L 294.415 476.384 C 294.436 477.266 293.743 477.959 292.861 477.959 Z  M 333.807 477.959 C 332.967 477.959 332.274 477.287 332.232 476.447 L 331.707 476.447 C 331.686 477.287 330.993 477.959 330.133 477.959 C 329.272 477.959 328.558 477.266 328.558 476.384 L 328.558 474.873 C 328.558 474.012 329.251 473.298 330.133 473.298 L 333.786 473.298 C 334.647 473.298 335.361 473.991 335.361 474.873 L 335.361 476.384 C 335.382 477.266 334.668 477.959 333.807 477.959 Z  M 344.81 477.959 C 343.97 477.959 343.277 477.287 343.235 476.447 L 339.666 476.447 C 339.645 477.287 338.952 477.959 338.091 477.959 C 337.23 477.959 336.516 477.266 336.516 476.384 L 336.516 474.873 C 336.516 474.012 337.209 473.298 338.091 473.298 L 344.789 473.298 C 345.65 473.298 346.364 473.991 346.364 474.873 L 346.364 476.384 C 346.385 477.266 345.671 477.959 344.81 477.959 Z  M 285.47 477.959 C 284.63 477.959 283.937 477.287 283.895 476.447 L 283.37 476.447 C 283.349 477.287 282.656 477.959 281.796 477.959 C 280.935 477.959 280.221 477.266 280.221 476.384 L 280.221 474.873 C 280.221 474.012 280.914 473.298 281.796 473.298 L 285.449 473.298 C 286.31 473.298 287.024 473.991 287.024 474.873 L 287.024 476.384 C 287.024 477.266 286.331 477.959 285.47 477.959 Z  M 278.058 477.959 C 277.218 477.959 276.525 477.287 276.483 476.447 L 275.958 476.447 C 275.937 477.287 275.244 477.959 274.383 477.959 C 273.522 477.959 272.809 477.266 272.809 476.384 L 272.809 474.873 C 272.809 474.012 273.501 473.298 274.383 473.298 L 278.037 473.298 C 278.898 473.298 279.612 473.991 279.612 474.873 L 279.612 476.384 C 279.612 477.266 278.919 477.959 278.058 477.959 Z  M 285.659 464.899 C 284.819 464.899 284.126 464.227 284.084 463.387 L 283.559 463.387 C 283.538 464.227 282.845 464.899 281.985 464.899 C 281.124 464.899 280.41 464.206 280.41 463.324 L 280.41 461.812 C 280.41 460.951 281.103 460.237 281.985 460.237 L 285.638 460.237 C 286.499 460.237 287.213 460.93 287.213 461.812 L 287.213 463.324 C 287.213 464.185 286.52 464.899 285.659 464.899 L 285.659 464.899 Z  M 293.239 464.899 C 292.399 464.899 291.707 464.227 291.665 463.387 L 291.14 463.387 C 291.119 464.227 290.426 464.899 289.565 464.899 C 288.704 464.899 287.99 464.206 287.99 463.324 L 287.99 461.812 C 287.99 460.951 288.683 460.237 289.565 460.237 L 293.218 460.237 C 294.079 460.237 294.793 460.93 294.793 461.812 L 294.793 463.324 C 294.814 464.185 294.121 464.899 293.239 464.899 L 293.239 464.899 Z  M 300.841 464.899 C 300.001 464.899 299.308 464.227 299.266 463.387 L 298.741 463.387 C 298.72 464.227 298.027 464.899 297.166 464.899 C 296.305 464.899 295.591 464.206 295.591 463.324 L 295.591 461.812 C 295.591 460.951 296.284 460.237 297.166 460.237 L 300.82 460.237 C 301.68 460.237 302.394 460.93 302.394 461.812 L 302.394 463.324 C 302.415 464.185 301.722 464.899 300.841 464.899 L 300.841 464.899 Z  M 308.442 464.899 C 307.602 464.899 306.909 464.227 306.867 463.387 L 306.342 463.387 C 306.321 464.227 305.628 464.899 304.767 464.899 C 303.906 464.899 303.192 464.206 303.192 463.324 L 303.192 461.812 C 303.192 460.951 303.885 460.237 304.767 460.237 L 308.442 460.237 C 309.303 460.237 310.017 460.93 310.017 461.812 L 310.017 463.324 C 310.017 464.185 309.324 464.899 308.442 464.899 L 308.442 464.899 Z  M 316.043 464.899 C 315.203 464.899 314.51 464.227 314.468 463.387 L 313.943 463.387 C 313.922 464.227 313.229 464.899 312.368 464.899 C 311.507 464.899 310.794 464.206 310.794 463.324 L 310.794 461.812 C 310.794 460.951 311.486 460.237 312.368 460.237 L 316.022 460.237 C 316.883 460.237 317.597 460.93 317.597 461.812 L 317.597 463.324 C 317.618 464.185 316.925 464.899 316.043 464.899 L 316.043 464.899 Z  M 323.644 464.899 C 322.804 464.899 322.111 464.227 322.069 463.387 L 321.544 463.387 C 321.523 464.227 320.831 464.899 319.97 464.899 C 319.109 464.899 318.395 464.206 318.395 463.324 L 318.395 461.812 C 318.395 460.951 319.088 460.237 319.97 460.237 L 323.623 460.237 C 324.484 460.237 325.198 460.93 325.198 461.812 L 325.198 463.324 C 325.204 463.739 325.042 464.14 324.75 464.436 C 324.458 464.732 324.06 464.899 323.644 464.899 L 323.644 464.899 Z  M 331.245 464.899 C 330.406 464.899 329.713 464.227 329.671 463.387 L 329.146 463.387 C 329.125 464.227 328.432 464.899 327.571 464.899 C 326.71 464.899 325.996 464.206 325.996 463.324 L 325.996 461.812 C 325.996 460.951 326.689 460.237 327.571 460.237 L 331.224 460.237 C 332.085 460.237 332.799 460.93 332.799 461.812 L 332.799 463.324 C 332.805 463.739 332.644 464.14 332.352 464.436 C 332.06 464.732 331.661 464.899 331.245 464.899 L 331.245 464.899 Z  M 344.81 464.899 C 343.97 464.899 343.277 464.227 343.235 463.387 L 336.285 463.387 C 336.264 464.227 335.571 464.899 334.71 464.899 C 333.849 464.899 333.135 464.206 333.135 463.324 L 333.135 461.812 C 333.135 460.951 333.828 460.237 334.71 460.237 L 344.789 460.237 C 345.65 460.237 346.364 460.93 346.364 461.812 L 346.364 463.324 C 346.369 463.739 346.208 464.14 345.916 464.436 C 345.624 464.732 345.226 464.899 344.81 464.899 L 344.81 464.899 Z  M 278.058 464.899 C 277.218 464.899 276.525 464.227 276.483 463.387 L 275.958 463.387 C 275.937 464.227 275.244 464.899 274.383 464.899 C 273.522 464.899 272.809 464.206 272.809 463.324 L 272.809 461.812 C 272.809 460.951 273.501 460.237 274.383 460.237 L 278.037 460.237 C 278.898 460.237 279.612 460.93 279.612 461.812 L 279.612 463.324 C 279.612 464.185 278.919 464.899 278.058 464.899 L 278.058 464.899 Z  M 284.273 458.347 C 283.454 458.347 282.782 457.717 282.719 456.919 C 282.635 457.717 281.985 458.347 281.166 458.347 C 280.305 458.347 279.591 457.654 279.591 456.772 L 279.591 455.261 C 279.591 454.4 280.284 453.686 281.166 453.686 L 284.273 453.686 C 285.134 453.686 285.848 454.379 285.848 455.261 L 285.848 456.772 C 285.848 457.654 285.134 458.347 284.273 458.347 Z  M 291.035 458.347 C 290.216 458.347 289.544 457.717 289.481 456.919 C 289.397 457.717 288.746 458.347 287.927 458.347 C 287.066 458.347 286.352 457.654 286.352 456.772 L 286.352 455.261 C 286.352 454.4 287.045 453.686 287.927 453.686 L 291.035 453.686 C 291.896 453.686 292.609 454.379 292.609 455.261 L 292.609 456.772 C 292.609 457.654 291.917 458.347 291.035 458.347 Z  M 297.817 458.347 C 296.998 458.347 296.326 457.717 296.263 456.919 C 296.2 457.717 295.528 458.347 294.709 458.347 C 293.848 458.347 293.134 457.654 293.134 456.772 L 293.134 455.261 C 293.134 454.4 293.827 453.686 294.709 453.686 L 297.817 453.686 C 298.678 453.686 299.392 454.379 299.392 455.261 L 299.392 456.772 C 299.371 457.654 298.678 458.347 297.817 458.347 Z  M 304.578 458.347 C 303.759 458.347 303.087 457.717 303.024 456.919 C 302.94 457.717 302.289 458.347 301.471 458.347 C 300.61 458.347 299.896 457.654 299.896 456.772 L 299.896 455.261 C 299.896 454.4 300.589 453.686 301.471 453.686 L 304.578 453.686 C 305.439 453.686 306.153 454.379 306.153 455.261 L 306.153 456.772 C 306.153 457.654 305.439 458.347 304.578 458.347 L 304.578 458.347 Z  M 311.339 458.347 C 310.521 458.347 309.849 457.717 309.786 456.919 C 309.702 457.717 309.051 458.347 308.232 458.347 C 307.371 458.347 306.657 457.654 306.657 456.772 L 306.657 455.261 C 306.657 454.4 307.35 453.686 308.232 453.686 L 311.339 453.686 C 312.2 453.686 312.914 454.379 312.914 455.261 L 312.914 456.772 C 312.914 457.654 312.2 458.347 311.339 458.347 L 311.339 458.347 Z  M 318.101 458.347 C 317.282 458.347 316.61 457.717 316.547 456.919 C 316.463 457.717 315.812 458.347 314.993 458.347 C 314.132 458.347 313.418 457.654 313.418 456.772 L 313.418 455.261 C 313.418 454.4 314.111 453.686 314.993 453.686 L 318.101 453.686 C 318.962 453.686 319.676 454.379 319.676 455.261 L 319.676 456.772 C 319.676 457.654 318.983 458.347 318.101 458.347 L 318.101 458.347 Z  M 324.883 458.347 C 324.064 458.347 323.392 457.717 323.329 456.919 C 323.245 457.717 322.594 458.347 321.775 458.347 C 320.914 458.347 320.201 457.654 320.201 456.772 L 320.201 455.261 C 320.201 454.4 320.893 453.686 321.775 453.686 L 324.883 453.686 C 325.744 453.686 326.458 454.379 326.458 455.261 L 326.458 456.772 C 326.437 457.654 325.744 458.347 324.883 458.347 L 324.883 458.347 Z  M 331.644 458.347 C 330.825 458.347 330.154 457.717 330.091 456.919 C 330.007 457.717 329.356 458.347 328.537 458.347 C 327.676 458.347 326.962 457.654 326.962 456.772 L 326.962 455.261 C 326.962 454.4 327.655 453.686 328.537 453.686 L 331.644 453.686 C 332.505 453.686 333.219 454.379 333.219 455.261 L 333.219 456.772 C 333.219 457.654 332.505 458.347 331.644 458.347 L 331.644 458.347 Z  M 338.406 458.347 C 337.587 458.347 336.915 457.717 336.852 456.919 C 336.768 457.717 336.117 458.347 335.298 458.347 C 334.437 458.347 333.723 457.654 333.723 456.772 L 333.723 455.261 C 333.723 454.4 334.416 453.686 335.298 453.686 L 338.406 453.686 C 339.267 453.686 339.981 454.379 339.981 455.261 L 339.981 456.772 C 339.981 457.654 339.267 458.347 338.406 458.347 L 338.406 458.347 Z  M 345.188 458.347 C 344.369 458.347 343.697 457.717 343.634 456.919 C 343.55 457.717 342.899 458.347 342.08 458.347 C 341.219 458.347 340.505 457.654 340.505 456.772 L 340.505 455.261 C 340.505 454.4 341.198 453.686 342.08 453.686 L 345.188 453.686 C 346.049 453.686 346.763 454.379 346.763 455.261 L 346.763 456.772 C 346.742 457.654 346.049 458.347 345.188 458.347 L 345.188 458.347 Z  M 277.512 458.347 C 276.693 458.347 276.021 457.717 275.958 456.919 C 275.895 457.717 275.223 458.347 274.404 458.347 C 273.543 458.347 272.829 457.654 272.829 456.772 L 272.829 455.261 C 272.829 454.4 273.522 453.686 274.404 453.686 L 277.512 453.686 C 278.373 453.686 279.087 454.379 279.087 455.261 L 279.087 456.772 C 279.087 457.654 278.373 458.347 277.512 458.347 Z  M 346.784 481.739 L 272.871 481.739 C 270.184 481.739 268 479.555 268 476.867 L 268 451.355 C 268 448.667 270.184 446.483 272.871 446.483 L 304.074 446.483 C 304.944 446.483 305.649 447.189 305.649 448.058 C 305.649 448.928 304.944 449.633 304.074 449.633 L 272.871 449.633 C 271.906 449.633 271.129 450.41 271.129 451.376 L 271.129 476.888 C 271.129 477.854 271.906 478.631 272.871 478.631 L 346.784 478.631 C 347.75 478.631 348.527 477.854 348.527 476.888 L 348.527 451.355 C 348.527 450.389 347.75 449.612 346.784 449.612 L 312.221 449.612 C 310.038 449.612 308.274 447.848 308.274 445.665 L 308.274 442.074 C 308.274 440.163 309.828 438.609 311.738 438.609 L 324.4 438.609 C 324.61 438.609 324.778 438.441 324.778 438.231 L 324.778 436.342 C 324.778 436.132 324.61 435.964 324.4 435.964 L 291.476 435.964 C 289.544 435.964 287.969 434.389 287.969 432.457 L 287.969 431.659 C 287.969 429.727 289.544 428.152 291.476 428.152 L 293.218 428.152 C 294.079 428.152 294.793 428.845 294.793 429.727 C 294.793 430.609 294.1 431.302 293.218 431.302 L 291.476 431.302 C 291.266 431.302 291.098 431.47 291.098 431.68 L 291.098 432.478 C 291.098 432.688 291.266 432.856 291.476 432.856 L 324.4 432.856 C 326.332 432.856 327.907 434.431 327.907 436.363 L 327.907 438.252 C 327.907 440.184 326.332 441.759 324.4 441.759 L 311.738 441.759 C 311.549 441.759 311.402 441.906 311.402 442.095 L 311.402 445.644 C 311.402 446.105 311.78 446.462 312.221 446.462 L 346.784 446.462 C 349.472 446.462 351.655 448.646 351.655 451.334 L 351.655 476.846 C 351.676 479.555 349.472 481.739 346.784 481.739 L 346.784 481.739 Z  M 309.786 422 C 308.925 422 308.211 422.693 308.211 423.575 L 308.211 427.165 C 308.211 427.711 307.77 428.152 307.224 428.152 L 300.946 428.152 C 300.358 428.152 299.833 428.488 299.581 428.992 C 299.308 428.509 298.804 428.152 298.216 428.152 L 297.229 428.152 C 296.368 428.152 295.654 428.845 295.654 429.727 C 295.654 430.609 296.347 431.302 297.229 431.302 L 298.216 431.302 C 298.804 431.302 299.329 430.966 299.581 430.462 C 299.854 430.945 300.358 431.302 300.946 431.302 L 307.224 431.302 C 309.492 431.302 311.339 429.454 311.339 427.186 L 311.339 423.596 C 311.36 422.693 310.647 422 309.786 422 L 309.786 422 Z " fill="rgb(2,43,58)"/><path d=" M 144.5 361.625 C 136.49 361.625 130 368.115 130 376.125 C 130 384.135 136.49 390.625 144.5 390.625 C 152.51 390.625 159 384.135 159 376.125 C 159 368.115 152.51 361.625 144.5 361.625 Z  M 144.5 364.042 C 151.174 364.042 156.583 369.451 156.583 376.125 C 156.583 382.799 151.174 388.208 144.5 388.208 C 137.826 388.208 132.417 382.799 132.417 376.125 C 132.417 369.451 137.826 364.042 144.5 364.042 Z  M 144.5 368.649 C 144.278 368.649 144.094 368.644 143.896 368.685 C 143.702 368.734 143.521 368.825 143.367 368.951 C 143.219 369.073 143.103 369.228 143.028 369.404 C 142.942 369.588 142.913 369.805 142.913 370.083 C 142.913 370.358 142.942 370.574 143.027 370.764 C 143.112 370.952 143.22 371.102 143.367 371.217 C 143.514 371.329 143.698 371.396 143.896 371.443 C 144.094 371.491 144.278 371.519 144.5 371.519 C 144.718 371.519 144.948 371.49 145.142 371.443 C 145.335 371.394 145.486 371.329 145.632 371.216 C 145.782 371.095 145.899 370.94 145.973 370.762 C 146.058 370.579 146.124 370.358 146.124 370.083 C 146.124 369.805 146.058 369.588 145.973 369.403 C 145.898 369.227 145.782 369.071 145.633 368.95 C 145.486 368.838 145.335 368.729 145.142 368.686 C 144.948 368.644 144.718 368.648 144.5 368.648 L 144.5 368.649 Z  M 143.027 372.689 L 143.027 383.526 L 145.973 383.526 L 145.973 372.689 L 143.027 372.689 Z " fill="rgb(2,43,58)"/></g></g></svg>