<svg enable-background="new 0 0 24 24" height="24px" id="Layer_1" version="1.1" viewBox="0 0 24 24" width="24px" xml:space="preserve" xmlns="http://www.w3.org/2000/svg" xmlns:xlink="http://www.w3.org/1999/xlink">
<g>
    <path d="M0,5v18c0,0.6,0.4,1,1,1h8c0.6,0,1-0.4,1-1V5L5,0L0,5z M8,22H2v-3h6V22z M8,18H2V6h6V18z M2.5,5L5,2.5L7.5,5H2.5z"/><path d="M21,0h-5c-0.6,0-1,0.4-1,1v2h-2c-0.6,0-1,0.4-1,1v8c0,0.6,0.4,1,1,1s1-0.4,1-1V5h1v18c0,0.6,0.4,1,1,1h5c0.6,0,1-0.4,1-1V1   C22,0.4,21.6,0,21,0z M20,22h-3V10h3V22z M20,9h-3V8h3V9z M20,7h-3V2h3V7z"/>
</g>
</svg>